HIERARCHY
ROOT Hips
{
	OFFSET 0.000000 0.000000 0.000000
	CHANNELS 6 Xposition Yposition Zposition Zrotation Yrotation Xrotation 
	JOINT LowerBack
	{
		OFFSET 0.000000 0.000000 0.000000
		CHANNELS 3 Zrotation Yrotation Xrotation
		JOINT Spine
		{
			OFFSET 0.028270 2.035590 -0.193380
			CHANNELS 3 Zrotation Yrotation Xrotation
			JOINT Spine1
			{
				OFFSET 0.056720 2.048850 -0.042750
				CHANNELS 3 Zrotation Yrotation Xrotation
				JOINT Neck
				{
					OFFSET 0.000000 0.000000 0.000000
					CHANNELS 3 Zrotation Yrotation Xrotation
					JOINT Neck1
					{
						OFFSET -0.054170 1.746240 0.172020
						CHANNELS 3 Zrotation Yrotation Xrotation
						JOINT Head
						{
							OFFSET 0.104070 1.761360 -0.123970
							CHANNELS 3 Zrotation Yrotation Xrotation
							End Site
							{
								OFFSET 0.000000 0.000000 0.000000
							}
						}
					}
				}
				JOINT LeftShoulder
				{
					OFFSET 0.000000 0.000000 0.000000
					CHANNELS 3 Zrotation Yrotation Xrotation
					JOINT LeftArm
					{
						OFFSET 3.362410 1.200890 -0.311210
						CHANNELS 3 Zrotation Yrotation Xrotation
						JOINT LeftForeArm
						{
							OFFSET 4.983000 -0.000000 -0.000000
							CHANNELS 3 Zrotation Yrotation Xrotation
							JOINT LeftHand
							{
								OFFSET 3.483560 -0.000000 -0.000000
								CHANNELS 3 Zrotation Yrotation Xrotation
								JOINT LeftFingerBase
								{
									OFFSET 0.000000 0.000000 0.000000
									CHANNELS 3 Zrotation Yrotation Xrotation
									JOINT LeftHandIndex1
									{
										OFFSET 0.715260 -0.000000 -0.000000
										CHANNELS 3 Zrotation Yrotation Xrotation
										End Site
										{
											OFFSET 0.000000 0.000000 0.000000
										}
									}
								}
								JOINT LThumb
								{
									OFFSET 0.000000 0.000000 0.000000
									CHANNELS 3 Zrotation Yrotation Xrotation
									End Site
									{
										OFFSET 0.000000 0.000000 0.000000
									}
								}
							}
						}
					}
				}
				JOINT RightShoulder
				{
					OFFSET 0.000000 0.000000 0.000000
					CHANNELS 3 Zrotation Yrotation Xrotation
					JOINT RightArm
					{
						OFFSET -3.136600 1.374050 -0.404650
						CHANNELS 3 Zrotation Yrotation Xrotation
						JOINT RightForeArm
						{
							OFFSET -5.241900 -0.000000 -0.000000
							CHANNELS 3 Zrotation Yrotation Xrotation
							JOINT RightHand
							{
								OFFSET -3.444170 -0.000000 -0.000000
								CHANNELS 3 Zrotation Yrotation Xrotation
								JOINT RightFingerBase
								{
									OFFSET 0.000000 0.000000 0.000000
									CHANNELS 3 Zrotation Yrotation Xrotation
									JOINT RightHandIndex1
									{
										OFFSET -0.622530 -0.000000 -0.000000
										CHANNELS 3 Zrotation Yrotation Xrotation
										End Site
										{
											OFFSET 0.000000 0.000000 0.000000
										}
									}
								}
								JOINT RThumb
								{
									OFFSET 0.000000 0.000000 0.000000
									CHANNELS 3 Zrotation Yrotation Xrotation
									End Site
									{
										OFFSET 0.000000 0.000000 0.000000
									}
								}
							}
						}
					}
				}
			}
		}
	}
}
}
MOTION
Frames: 15
Frame Time: 0.008333
-4.843009 15.564747 -1.557781 -6.301313 67.532112 24.145698 -1.949357 0.069912 11.111861 -1.061842 0.478202 -0.939789 -5.317305 0.553577 -1.166121 11.991059 -12.430192 -8.179446 -1.386723 -0.066530 -0.586507 0.000000 0.000000 0.000000 5.210377 13.143525 1.267982 -73.217180 33.135591 14.391526 -179.733663 -80.215663 179.996882 1.439470 1.546389 0.017390 0.018632 0.175295 0.000000 0.000000 0.000000 0.000000 0.000000 0.000000 0.000000 6.641148 -5.295533 0.323948 63.568245 -1.339984 22.627215 178.990975 74.311942 -179.995626 0.184131 1.901265 0.003959 0.034932 -0.403936 0.000000 0.000000 0.000000 0.000000 0.000000 0.000000 0.000000 
-4.670215 15.507511 -1.536279 -6.503070 66.469912 23.479934 -2.193909 0.046577 11.167771 -1.124978 0.458408 -0.940831 -5.413623 0.539380 -1.193496 11.996355 -12.297256 -8.140303 -1.445931 -0.071763 -0.571826 0.000000 0.000000 0.000000 4.893443 13.064227 1.264157 -72.974213 32.152094 13.929258 -179.722239 -80.277343 179.996718 1.449238 1.510529 0.017132 0.014698 0.179234 0.000000 0.000000 0.000000 0.000000 0.000000 0.000000 0.000000 6.819000 -5.150348 0.310204 64.288135 -1.875912 22.176748 179.059014 75.160582 -179.994729 0.350527 2.000315 0.007737 0.026851 -0.402683 0.000000 0.000000 0.000000 0.000000 0.000000 0.000000 0.000000 
-4.501220 15.454150 -1.512168 -6.601259 65.425306 22.938823 -2.431117 0.012464 11.209504 -1.188324 0.426746 -0.944291 -5.520335 0.513349 -1.219263 11.987773 -12.138097 -8.091649 -1.515763 -0.077910 -0.555004 0.000000 0.000000 0.000000 4.520681 12.958680 1.265054 -72.613382 30.992483 13.451465 -179.711470 -80.456414 179.996537 1.468589 1.517839 0.017481 0.009447 0.182443 0.000000 0.000000 0.000000 0.000000 0.000000 0.000000 0.000000 7.027459 -4.995141 0.294060 65.117735 -2.409993 21.591669 179.133884 76.127726 -179.993955 0.499277 2.141430 0.011617 0.019027 -0.402168 0.000000 0.000000 0.000000 0.000000 0.000000 0.000000 0.000000 
-4.336299 15.405623 -1.485778 -6.619590 64.413175 22.500619 -2.650137 -0.033308 11.240015 -1.249592 0.382119 -0.948116 -5.636659 0.474386 -1.239353 11.965184 -11.958623 -8.035431 -1.595871 -0.084892 -0.536708 0.000000 0.000000 0.000000 4.102559 12.831518 1.271431 -72.141635 29.643797 12.962130 -179.702820 -80.777289 179.996294 1.507572 1.583206 0.018938 0.002627 0.184607 0.000000 0.000000 0.000000 0.000000 0.000000 0.000000 0.000000 7.270386 -4.841079 0.274949 66.047565 -2.927733 20.868141 179.215602 77.219819 -179.993435 0.610105 2.325641 0.015101 0.011978 -0.402257 0.000000 0.000000 0.000000 0.000000 0.000000 0.000000 0.000000 
-4.175687 15.362667 -1.457563 -6.581461 63.444078 22.141839 -2.840298 -0.090855 11.263361 -1.306482 0.324239 -0.950492 -5.761272 0.422167 -1.251387 11.928097 -11.766633 -7.972752 -1.685394 -0.092611 -0.517297 0.000000 0.000000 0.000000 3.646236 12.680090 1.283190 -71.570718 28.111924 12.456192 -179.697892 -81.251793 179.995938 1.574110 1.712192 0.021704 -0.005845 0.185591 0.000000 0.000000 0.000000 0.000000 0.000000 0.000000 0.000000 7.549664 -4.700926 0.253706 67.062492 -3.412668 20.011295 179.303858 78.446457 -179.993308 0.660409 2.547278 0.017689 0.006300 -0.402622 0.000000 0.000000 0.000000 0.000000 0.000000 0.000000 0.000000 
-4.019512 15.325743 -1.428009 -6.507891 62.525223 21.839657 -2.993570 -0.159925 11.283828 -1.357074 0.253290 -0.949578 -5.891966 0.356860 -1.252895 11.877496 -11.569662 -7.905247 -1.782703 -0.100899 -0.497241 0.000000 0.000000 0.000000 3.164820 12.504592 1.300474 -70.919946 26.407809 11.928094 -179.698577 -81.888267 179.995424 1.670823 1.908833 0.026076 -0.015845 0.185327 0.000000 0.000000 0.000000 0.000000 0.000000 0.000000 0.000000 7.864667 -4.585914 0.230982 68.141927 -3.847641 19.034764 179.397847 79.811263 -179.993726 0.624284 2.795637 0.018284 0.002580 -0.402864 0.000000 0.000000 0.000000 0.000000 0.000000 0.000000 0.000000 
-3.867850 15.295003 -1.397595 -6.416357 61.660261 21.574681 -3.104935 -0.240097 11.305010 -1.399853 0.169715 -0.943571 -6.025476 0.278918 -1.240865 11.815917 -11.375854 -7.835647 -1.885501 -0.109526 -0.477294 0.000000 0.000000 0.000000 2.677827 12.309965 1.323136 -70.216028 24.544158 11.375029 -179.707024 -82.692087 179.994710 1.797588 2.168496 0.032352 -0.027103 0.183982 0.000000 0.000000 0.000000 0.000000 0.000000 0.000000 0.000000 8.213065 -4.506661 0.207235 69.260665 -4.215627 17.961617 179.496325 81.314812 -179.994839 0.473782 3.054292 0.015184 0.001360 -0.402509 0.000000 0.000000 0.000000 0.000000 0.000000 0.000000 0.000000 
-3.720711 15.270347 -1.366720 -6.323470 60.849753 21.329065 -3.170679 -0.330543 11.328832 -1.433689 0.074410 -0.932740 -6.159026 0.189071 -1.218362 11.745487 -11.189340 -7.762390 -1.991687 -0.118363 -0.456838 0.000000 0.000000 0.000000 2.197658 12.079454 1.350290 -69.485917 22.569694 10.774136 -179.724601 -83.642529 179.993778 1.949731 2.480835 0.040726 -0.039091 0.181809 0.000000 0.000000 0.000000 0.000000 0.000000 0.000000 0.000000 8.589397 -4.467395 0.185172 70.391670 -4.510033 16.820456 179.597297 82.951815 -179.996773 0.182441 3.301128 0.006690 0.003069 -0.401073 0.000000 0.000000 0.000000 0.000000 0.000000 0.000000 0.000000 
-3.578130 15.251461 -1.335688 -6.242630 60.092505 21.089248 -3.190971 -0.430599 11.356144 -1.457887 -0.031807 -0.916443 -6.288319 0.088092 -1.184140 11.670533 -11.016284 -7.687971 -2.098257 -0.127145 -0.436459 0.000000 0.000000 0.000000 1.750936 11.818208 1.380940 -68.762200 20.511134 10.122487 -179.752706 -84.729000 179.992627 2.121565 2.832268 0.051196 -0.051301 0.179225 0.000000 0.000000 0.000000 0.000000 0.000000 0.000000 0.000000 8.986754 -4.473067 0.165471 71.505028 -4.723012 15.648403 179.698442 84.711422 -179.999631 -0.276431 3.511971 -0.008800 0.008006 -0.398132 0.000000 0.000000 0.000000 0.000000 0.000000 0.000000 0.000000 
-3.440035 15.237874 -1.304605 -6.185689 59.385507 20.844538 -3.167436 -0.539563 11.386406 -1.472179 -0.148060 -0.895770 -6.409802 -0.023348 -1.142022 11.594803 -10.858352 -7.611355 -2.202726 -0.135721 -0.415645 0.000000 0.000000 0.000000 1.358356 11.514613 1.413468 -68.073903 18.420781 9.404875 -179.791340 -85.918708 179.991286 2.305010 3.204663 0.063557 -0.063114 0.176696 0.000000 0.000000 0.000000 0.000000 0.000000 0.000000 0.000000 9.396236 -4.521956 0.150564 72.572016 -4.858978 14.483851 179.796834 86.575324 179.996537 -0.923039 3.660757 -0.032287 0.016263 -0.393354 0.000000 0.000000 0.000000 0.000000 0.000000 0.000000 0.000000 
-3.306393 15.229055 -1.273529 -6.161439 58.724695 20.587983 -3.103069 -0.656666 11.418151 -1.476593 -0.273421 -0.872440 -6.520160 -0.144588 -1.097186 11.521790 -10.715840 -7.530490 -2.302739 -0.143970 -0.393568 0.000000 0.000000 0.000000 1.040229 11.153308 1.445786 -67.445497 16.356733 8.606480 -179.839186 -87.169001 179.989811 2.491848 3.578788 0.077206 -0.073944 0.174690 0.000000 0.000000 0.000000 0.000000 0.000000 0.000000 0.000000 9.807159 -4.609659 0.143318 73.567449 -4.929447 13.365709 179.889308 88.519071 179.991748 -1.768220 3.721909 -0.063473 0.027707 -0.386523 0.000000 0.000000 0.000000 0.000000 0.000000 0.000000 0.000000 
-3.177124 15.224363 -1.242277 -6.175836 58.106435 20.316634 -3.003264 -0.781372 11.450396 -1.471479 -0.407130 -0.846417 -6.615748 -0.274862 -1.048518 11.456470 -10.591007 -7.449024 -2.395625 -0.151652 -0.371177 0.000000 0.000000 0.000000 0.822266 10.753252 1.475842 -66.896933 14.334035 7.743584 -179.894561 -88.454455 179.988255 2.675765 3.938106 0.091742 -0.083508 0.173676 0.000000 0.000000 0.000000 0.000000 0.000000 0.000000 0.000000 10.210354 -4.732880 0.143490 74.467081 -4.944135 12.334770 -0.027238 89.489280 -0.013909 -2.810949 3.673832 -0.099960 0.041980 -0.377545 -0.000000 0.000000 0.000000 0.000000 0.000000 0.000000 0.000000 
-3.052095 15.223287 -1.210691 -6.231153 57.526221 20.030393 -2.872382 -0.912942 11.481547 -1.457449 -0.548338 -0.820385 -6.695142 -0.413657 -1.004149 11.400391 -10.480466 -7.362332 -2.480040 -0.158771 -0.346926 0.000000 0.000000 0.000000 0.713152 10.290328 1.501255 -66.435013 12.417861 6.802076 -179.953500 -89.713151 179.986703 2.848959 4.265129 0.106065 -0.091402 0.173964 0.000000 0.000000 0.000000 0.000000 0.000000 0.000000 0.000000 10.594136 -4.881905 0.154762 75.256127 -4.927364 11.422093 0.044459 87.486282 -0.020243 -4.030764 3.499286 -0.137149 0.058470 -0.366457 -0.000000 0.000000 0.000000 0.000000 0.000000 0.000000 0.000000 
-2.931203 15.225343 -1.178467 -6.324943 56.980327 19.733248 -2.715857 -1.050617 11.511085 -1.435389 -0.696158 -0.795823 -6.757431 -0.560243 -0.968334 11.355395 -10.382452 -7.268647 -2.554871 -0.165294 -0.320207 0.000000 0.000000 0.000000 0.719564 9.758808 1.520022 -66.058029 10.644883 5.786349 -0.011802 -89.106281 -0.014766 3.004401 4.547452 0.119475 -0.097447 0.175753 0.000000 0.000000 0.000000 0.000000 0.000000 0.000000 0.000000 10.949302 -5.048792 0.178803 75.923958 -4.901438 10.654849 0.102594 85.512512 -0.026986 -5.390381 3.190789 -0.168342 0.076397 -0.353440 0.000000 0.000000 0.000000 0.000000 0.000000 0.000000 0.000000 
-2.814279 15.230130 -1.145318 -6.453033 56.465136 19.431560 -2.539499 -1.193784 11.539459 -1.406273 -0.849788 -0.771884 -6.802358 -0.713543 -0.937363 11.324655 -10.297441 -7.172980 -2.618997 -0.171067 -0.292539 0.000000 0.000000 0.000000 0.845883 9.196756 1.530914 -65.754335 8.991831 4.738862 -0.066591 -88.025426 -0.016118 3.137776 4.779400 0.131175 -0.101854 0.179171 0.000000 0.000000 0.000000 0.000000 0.000000 0.000000 0.000000 11.271175 -5.227689 0.212735 76.462242 -4.883500 10.054445 0.146446 83.614540 -0.033806 -6.835163 2.751718 -0.186239 0.094834 -0.338794 0.000000 0.000000 0.000000 0.000000 0.000000 0.000000 0.000000 
